<svg xmlns="http://www.w3.org/2000/svg" xmlns:xlink="http://www.w3.org/1999/xlink" width="500" zoomAndPan="magnify" viewBox="0 0 375 374.999991" height="500" preserveAspectRatio="xMidYMid meet" version="1.0"><defs><g/><clipPath id="dc016b26db"><path d="M 12 20.4375 L 362.875 20.4375 L 362.875 354.9375 L 12 354.9375 Z M 12 20.4375 " clip-rule="nonzero"/></clipPath></defs><g clip-path="url(#dc016b26db)"><path fill="#c40000" d="M 310.113281 20.4375 C 310.113281 20.4375 271.988281 57.183594 255.765625 78.054688 C 252.097656 82.773438 247.898438 88.871094 243.621094 95.355469 C 225.421875 90.691406 206.714844 88.359375 187.503906 88.359375 C 167.125 88.449219 147.363281 91.152344 128.222656 96.464844 C 126.558594 93.824219 124.9375 91.316406 123.429688 89.121094 C 108.117188 66.875 72.234375 27.148438 72.234375 27.148438 C 72.234375 27.148438 48.472656 74.757812 40.097656 99.949219 C 31.789062 124.929688 22.464844 176.550781 22.308594 177.410156 C 18.972656 184.480469 16.441406 191.710938 14.714844 199.101562 C 12.992188 206.496094 12.097656 213.945312 12.035156 221.453125 C 12.035156 223.632812 12.105469 225.808594 12.246094 227.984375 C 12.386719 230.160156 12.597656 232.332031 12.878906 234.5 C 13.160156 236.667969 13.511719 238.828125 13.933594 240.984375 C 14.355469 243.136719 14.847656 245.285156 15.40625 247.421875 C 15.96875 249.554688 16.597656 251.679688 17.292969 253.792969 C 17.992188 255.90625 18.757812 258.003906 19.589844 260.089844 C 20.425781 262.175781 21.324219 264.242188 22.292969 266.292969 C 23.257812 268.34375 24.292969 270.375 25.390625 272.386719 C 26.492188 274.402344 27.652344 276.390625 28.882812 278.359375 C 30.109375 280.328125 31.402344 282.273438 32.753906 284.195312 C 34.109375 286.117188 35.523438 288.011719 37 289.878906 C 38.476562 291.746094 40.011719 293.585938 41.605469 295.398438 C 43.203125 297.210938 44.855469 298.988281 46.566406 300.738281 C 48.277344 302.488281 50.042969 304.207031 51.863281 305.890625 C 53.6875 307.574219 55.5625 309.222656 57.488281 310.835938 C 59.417969 312.449219 61.398438 314.027344 63.429688 315.566406 C 65.460938 317.109375 67.539062 318.609375 69.667969 320.074219 C 71.792969 321.535156 73.96875 322.957031 76.1875 324.339844 C 78.40625 325.722656 80.671875 327.0625 82.976562 328.359375 C 85.285156 329.65625 87.632812 330.910156 90.019531 332.121094 C 92.40625 333.332031 94.832031 334.496094 97.296875 335.613281 C 99.757812 336.734375 102.257812 337.808594 104.789062 338.835938 C 107.320312 339.863281 109.886719 340.839844 112.480469 341.773438 C 115.078125 342.703125 117.703125 343.585938 120.355469 344.417969 C 123.007812 345.253906 125.6875 346.035156 128.390625 346.769531 C 131.09375 347.503906 133.820312 348.1875 136.570312 348.820312 C 139.316406 349.453125 142.082031 350.03125 144.871094 350.5625 C 147.65625 351.089844 150.457031 351.570312 153.273438 351.992188 C 156.089844 352.417969 158.917969 352.789062 161.757812 353.109375 C 164.597656 353.429688 167.449219 353.695312 170.304688 353.910156 C 173.164062 354.125 176.027344 354.285156 178.894531 354.390625 C 181.761719 354.496094 184.632812 354.550781 187.503906 354.550781 C 190.375 354.550781 193.246094 354.496094 196.113281 354.390625 C 198.984375 354.285156 201.847656 354.125 204.703125 353.910156 C 207.5625 353.695312 210.410156 353.429688 213.25 353.109375 C 216.09375 352.789062 218.921875 352.417969 221.738281 351.992188 C 224.554688 351.570312 227.355469 351.089844 230.140625 350.5625 C 232.925781 350.03125 235.695312 349.453125 238.441406 348.820312 C 241.191406 348.1875 243.914062 347.503906 246.621094 346.769531 C 249.324219 346.035156 252 345.253906 254.65625 344.417969 C 257.308594 343.585938 259.933594 342.703125 262.527344 341.773438 C 265.125 340.839844 267.6875 339.863281 270.222656 338.835938 C 272.753906 337.808594 275.25 336.734375 277.714844 335.617188 C 280.179688 334.496094 282.605469 333.332031 284.992188 332.121094 C 287.378906 330.910156 289.726562 329.65625 292.03125 328.359375 C 294.339844 327.0625 296.601562 325.722656 298.824219 324.339844 C 301.042969 322.957031 303.214844 321.535156 305.34375 320.074219 C 307.472656 318.609375 309.550781 317.109375 311.582031 315.566406 C 313.613281 314.027344 315.589844 312.449219 317.519531 310.835938 C 319.449219 309.222656 321.324219 307.574219 323.144531 305.890625 C 324.96875 304.207031 326.734375 302.488281 328.445312 300.738281 C 330.15625 298.992188 331.808594 297.210938 333.402344 295.398438 C 335 293.589844 336.535156 291.75 338.011719 289.878906 C 339.488281 288.011719 340.902344 286.117188 342.257812 284.195312 C 343.609375 282.273438 344.902344 280.328125 346.128906 278.359375 C 347.355469 276.390625 348.519531 274.402344 349.617188 272.386719 C 350.71875 270.375 351.75 268.34375 352.71875 266.292969 C 353.6875 264.242188 354.585938 262.175781 355.421875 260.089844 C 356.253906 258.007812 357.019531 255.90625 357.71875 253.792969 C 358.414062 251.679688 359.042969 249.558594 359.605469 247.421875 C 360.164062 245.285156 360.65625 243.136719 361.078125 240.984375 C 361.5 238.828125 361.847656 236.667969 362.132812 234.5 C 362.414062 232.332031 362.625 230.160156 362.765625 227.984375 C 362.90625 225.808594 362.976562 223.632812 362.976562 221.453125 C 362.96875 213.515625 362.035156 205.640625 360.171875 197.828125 C 358.304688 190.019531 355.542969 182.394531 351.878906 174.957031 C 351.132812 169.425781 344.507812 120.972656 337.839844 96.265625 C 330.773438 70.085938 310.113281 20.4375 310.113281 20.4375 Z M 310.113281 20.4375 " fill-opacity="1" fill-rule="nonzero"/></g><path fill="#bfbfbf" d="M 194.570312 246.167969 C 194.570312 251.820312 188.054688 261.414062 180.628906 261.414062 C 173.203125 261.414062 168.171875 253.605469 168.171875 247.949219 C 168.171875 242.296875 173.203125 246.726562 180.628906 246.726562 C 188.054688 246.726562 194.570312 240.511719 194.570312 246.167969 Z M 194.570312 246.167969 " fill-opacity="1" fill-rule="nonzero"/><path fill="#ffffff" d="M 277.816406 166.402344 C 250.316406 165.539062 218.828125 198.054688 218.828125 198.054688 C 218.828125 198.054688 248.453125 230.785156 281.1875 230.566406 C 313.96875 230.347656 330.90625 197.199219 330.90625 197.199219 C 330.90625 197.199219 309.308594 167.386719 277.816406 166.402344 Z M 99.785156 168.570312 C 68.296875 169.558594 46.695312 199.371094 46.695312 199.371094 C 46.695312 199.371094 63.636719 232.519531 96.414062 232.738281 C 129.148438 232.957031 158.777344 200.226562 158.777344 200.226562 C 158.777344 200.226562 127.285156 167.710938 99.785156 168.570312 Z M 99.785156 168.570312 " fill-opacity="1" fill-rule="nonzero"/><path fill="#c40000" d="M 277.84375 169.265625 C 262.675781 211.1875 283.742188 224.023438 283.742188 224.023438 C 283.742188 224.023438 297.226562 195.789062 277.84375 169.265625 Z M 100.628906 173.707031 C 81.246094 200.226562 94.730469 228.460938 94.730469 228.460938 C 94.730469 228.460938 115.796875 215.628906 100.628906 173.707031 Z M 100.628906 173.707031 " fill-opacity="1" fill-rule="nonzero"/><g fill="#c40000" fill-opacity="1"><g transform="translate(175.828119, 122.11763)"><g><path d="M 2.25 -1.28125 L 2.25 -0.296875 C 2.25 0.117188 2.210938 0.460938 2.140625 0.734375 C 2.066406 1.015625 1.953125 1.28125 1.796875 1.53125 L 1.078125 1.53125 C 1.441406 1 1.625 0.488281 1.625 0 L 1.109375 0 L 1.109375 -1.28125 Z M 2.25 -1.28125 "/></g></g><g transform="translate(179.162103, 122.11763)"><g><path d="M 2.25 -1.28125 L 2.25 -0.296875 C 2.25 0.117188 2.210938 0.460938 2.140625 0.734375 C 2.066406 1.015625 1.953125 1.28125 1.796875 1.53125 L 1.078125 1.53125 C 1.441406 1 1.625 0.488281 1.625 0 L 1.109375 0 L 1.109375 -1.28125 Z M 2.25 -1.28125 "/></g></g><g transform="translate(182.496087, 122.11763)"><g><path d="M 2.25 -1.28125 L 2.25 -0.296875 C 2.25 0.117188 2.210938 0.460938 2.140625 0.734375 C 2.066406 1.015625 1.953125 1.28125 1.796875 1.53125 L 1.078125 1.53125 C 1.441406 1 1.625 0.488281 1.625 0 L 1.109375 0 L 1.109375 -1.28125 Z M 2.25 -1.28125 "/></g></g><g transform="translate(185.830071, 122.11763)"><g><path d="M 2.25 -1.28125 L 2.25 -0.296875 C 2.25 0.117188 2.210938 0.460938 2.140625 0.734375 C 2.066406 1.015625 1.953125 1.28125 1.796875 1.53125 L 1.078125 1.53125 C 1.441406 1 1.625 0.488281 1.625 0 L 1.109375 0 L 1.109375 -1.28125 Z M 2.25 -1.28125 "/></g></g><g transform="translate(189.164055, 122.11763)"><g><path d="M 2.25 -1.28125 L 2.25 -0.296875 C 2.25 0.117188 2.210938 0.460938 2.140625 0.734375 C 2.066406 1.015625 1.953125 1.28125 1.796875 1.53125 L 1.078125 1.53125 C 1.441406 1 1.625 0.488281 1.625 0 L 1.109375 0 L 1.109375 -1.28125 Z M 2.25 -1.28125 "/></g></g><g transform="translate(192.498039, 122.11763)"><g><path d="M 2.25 -1.28125 L 2.25 -0.296875 C 2.25 0.117188 2.210938 0.460938 2.140625 0.734375 C 2.066406 1.015625 1.953125 1.28125 1.796875 1.53125 L 1.078125 1.53125 C 1.441406 1 1.625 0.488281 1.625 0 L 1.109375 0 L 1.109375 -1.28125 Z M 2.25 -1.28125 "/></g></g><g transform="translate(195.832023, 122.11763)"><g><path d="M 2.25 -1.28125 L 2.25 -0.296875 C 2.25 0.117188 2.210938 0.460938 2.140625 0.734375 C 2.066406 1.015625 1.953125 1.28125 1.796875 1.53125 L 1.078125 1.53125 C 1.441406 1 1.625 0.488281 1.625 0 L 1.109375 0 L 1.109375 -1.28125 Z M 2.25 -1.28125 "/></g></g></g></svg>